<svg width="1920" height="1080" viewBox="0 0 1920 1080" fill="none" xmlns="http://www.w3.org/2000/svg">
<path d="M538 14H533.653H530.755L526.89 14.9679L523.026 16.9036L519.645 18.8393L516.264 20.7751L513.849 23.1947L509.985 26.5823L507.086 29.9698L505.154 32.3894L503.705 35.777L502.256 38.1966L500.807 43.036L499.841 45.9396L498.875 51.7468V55.1343V60.9415L499.841 65.2969V70.6201V72.0719C499.841 72.0719 498.5 70.8592 497.426 70.6201C496.689 70.4562 496.218 70.4078 495.494 70.6201C494.589 70.8856 494.191 71.3677 493.562 72.0719C492.128 73.6778 492.364 75.2552 492.113 77.3952C491.914 79.0844 492.113 80.0497 492.113 81.7506C492.113 83.8295 491.756 85.026 492.113 87.0739C492.42 88.84 492.949 89.7446 493.562 91.4293C494.257 93.3418 494.654 94.415 495.494 96.2686C496.191 97.8079 496.641 98.6437 497.426 100.14C498.329 101.862 498.391 103.201 499.841 104.495C500.662 105.229 501.197 105.649 502.256 105.947C503.346 106.254 504.023 105.947 505.154 105.947H507.086C507.086 105.947 506.92 107.729 507.086 108.851C507.324 110.448 507.81 111.28 508.535 112.722C509.03 113.706 509.447 114.18 509.985 115.142C510.808 116.617 510.983 117.606 511.917 119.013C512.585 120.021 513.195 120.415 513.849 121.433C514.533 122.499 514.854 123.149 515.298 124.337C515.972 126.142 516.076 127.258 516.264 129.176C516.448 131.057 516.264 132.125 516.264 134.015C516.264 135.527 516.264 136.375 516.264 137.887C516.264 137.887 516.264 142.016 516.264 144.662C516.264 145.985 516.37 146.731 516.264 148.049C516.11 149.97 515.896 151.057 515.298 152.889C514.851 154.257 514.487 154.987 513.849 156.276C513.173 157.641 512.872 158.478 511.917 159.664C510.824 161.02 509.856 161.433 508.535 162.567C507.215 163.701 506.555 164.438 505.154 165.471C503.382 166.777 502.27 167.347 500.324 168.375C499.578 168.769 499.128 168.929 498.392 169.342C497.206 170.009 496.721 170.69 495.494 171.278C494.418 171.794 493.713 171.827 492.596 172.246C490.461 173.046 489.41 173.848 487.282 174.666C484.887 175.587 483.397 175.677 481.003 176.601C479.27 177.271 478.389 177.866 476.656 178.537C474.987 179.184 474.006 179.422 472.309 179.989C470.045 180.745 468.803 181.257 466.512 181.925C464.272 182.577 462.946 182.689 460.716 183.376C458.606 184.027 457.495 184.605 455.403 185.312C452.972 186.134 451.448 186.16 449.123 187.248C447.746 187.893 447.08 188.459 445.742 189.184C443.887 190.189 442.653 190.411 440.912 191.603C439.696 192.437 439.107 193.034 438.014 194.023C436.628 195.277 435.888 196.025 434.633 197.411C433.009 199.202 432.244 200.334 430.768 202.25C429.616 203.746 428.854 204.509 427.87 206.121C426.991 207.564 426.678 208.474 425.938 209.993C425.938 209.993 423.927 214.441 422.557 217.252C421.817 218.771 421.271 219.562 420.625 221.123C419.573 223.665 419.603 225.302 418.693 227.898C417.462 231.411 416.372 233.223 414.829 236.609C413.532 239.455 412.89 241.093 411.447 243.868C410.551 245.594 409.905 246.485 409.032 248.224C407.742 250.795 407.363 252.397 406.134 254.999C405.413 256.527 404.974 257.367 404.202 258.87C402.928 261.351 402.21 262.743 400.821 265.161C399.384 267.661 398.395 268.953 396.957 271.452C395.776 273.504 395.182 274.692 394.059 276.776C392.534 279.602 391.658 281.176 390.194 284.035C389.232 285.914 388.689 286.967 387.779 288.874C386.796 290.934 386.55 292.247 385.364 294.197C384.245 296.037 383.078 296.698 381.983 298.553C380.161 301.639 380.273 303.881 379.085 307.263C378.352 309.35 378.264 310.675 377.153 312.587C375.876 314.784 374.379 315.431 372.805 317.426C371.378 319.236 370.718 320.357 369.424 322.265C368.66 323.393 368.301 324.073 367.492 325.169C365.825 327.428 364.427 328.309 362.662 330.492C361.047 332.489 360.143 333.627 358.798 335.815C357.249 338.334 356.682 339.918 355.417 342.59C354.44 344.654 354.041 345.882 353.001 347.914C351.806 350.25 350.872 351.414 349.62 353.721C348.211 356.32 347.56 357.85 346.239 360.496C345.107 362.764 344.438 364.018 343.341 366.303C342.17 368.741 341.575 370.137 340.443 372.594C339.311 375.051 338.681 376.431 337.545 378.885C336.231 381.723 335.293 383.228 334.164 386.144C333.02 389.098 332.892 390.934 331.748 393.887C330.619 396.804 329.654 398.296 328.367 401.146C327.009 404.153 326.06 405.769 324.986 408.889C324.031 411.663 323.966 413.36 323.054 416.148C322.235 418.65 321.659 420.014 320.639 422.439C319.426 425.322 318.615 426.881 317.258 429.698C315.791 432.743 314.806 434.371 313.393 437.441C312.191 440.055 311.544 441.536 310.495 444.216C309.472 446.832 309.108 448.377 308.08 450.991C306.718 454.455 305.677 456.279 304.216 459.702C303.252 461.961 302.863 463.295 301.801 465.509C300.777 467.644 299.999 468.735 298.903 470.833C297.729 473.079 296.989 474.304 296.005 476.64C295.378 478.127 295.314 479.086 294.555 480.511C293.668 482.179 292.435 482.661 291.657 484.383C291.016 485.803 291.287 486.815 290.691 488.254C289.91 490.142 288.756 490.807 287.793 492.61C286.553 494.93 286.814 496.696 285.378 498.901C284.718 499.914 284.078 500.289 283.446 501.32C283.005 502.041 282.761 502.459 282.48 503.256C282.036 504.516 282.185 505.321 281.997 506.644C281.808 507.967 281.614 508.699 281.514 510.031C281.4 511.539 281.979 512.464 281.514 513.903C281.174 514.951 280.449 515.29 280.065 516.322C279.664 517.399 279.857 518.11 279.582 519.226C279.296 520.386 278.993 520.996 278.616 522.129C278.05 523.83 277.93 524.863 277.167 526.485C276.408 528.098 275.595 528.787 274.751 530.356L273.785 532.292C273.785 532.292 273.61 534.964 273.302 536.647C273.022 538.18 272.838 539.044 272.336 540.519C271.873 541.881 271.434 542.576 270.887 543.906C270.5 544.848 270.298 545.381 269.921 546.326C269.544 547.271 269.291 547.785 268.955 548.746C268.501 550.044 268.366 550.81 267.989 552.133C267.612 553.456 267.676 554.31 267.023 555.521C266.575 556.352 265.963 556.596 265.574 557.457C265.253 558.167 264.806 558.667 265.091 559.392C265.287 559.89 265.561 560.164 266.057 560.36C266.781 560.646 267.231 560.049 267.989 559.876C268.927 559.662 269.549 559.834 270.404 559.392C271.353 558.903 271.678 558.298 272.336 557.457C273.015 556.589 273.107 555.904 273.785 555.037C274.444 554.196 275.059 553.943 275.717 553.101C276.137 552.565 276.401 552.269 276.684 551.649C277.006 550.94 277.105 550.49 277.167 549.714C277.197 549.337 276.9 549.013 277.167 548.746C277.433 548.479 277.755 548.746 278.133 548.746H279.099C279.099 548.746 279.718 548.502 280.065 548.262C280.84 547.724 280.899 547.043 281.514 546.326C282.209 545.515 282.839 545.269 283.446 544.39C283.926 543.696 284.133 543.252 284.412 542.455C284.792 541.37 284.82 540.698 284.895 539.551C284.944 538.797 284.801 538.365 284.895 537.615C285.043 536.429 285.563 535.869 285.861 534.712C286.102 533.779 286.291 533.254 286.344 532.292C286.365 531.915 286.291 531.698 286.344 531.324C286.463 530.488 286.908 530.131 287.31 529.388C287.834 528.42 288.166 527.897 288.759 526.969C289.126 526.395 289.38 526.104 289.725 525.517C290.154 524.789 290.263 524.309 290.691 523.581C291.037 522.994 291.267 522.688 291.657 522.129C292.199 521.356 292.54 520.95 293.106 520.194C293.672 519.438 294.049 519.055 294.555 518.258C295.235 517.188 295.199 516.332 296.005 515.354C296.344 514.942 296.593 514.009 296.971 514.387C297.237 514.654 296.971 514.976 296.971 515.354C296.971 516.299 296.971 516.829 296.971 517.774C296.971 518.341 297.075 518.669 296.971 519.226C296.815 520.057 296.407 520.419 296.005 521.162C295.48 522.13 294.853 522.52 294.555 523.581C294.249 524.673 294.555 525.351 294.555 526.485C294.555 527.052 294.555 527.937 294.555 527.937C294.555 527.937 294.489 529.321 295.038 529.872C295.588 530.423 296.198 530.263 296.971 530.356C297.72 530.447 298.179 530.569 298.903 530.356C299.808 530.091 300.126 529.528 300.835 528.905C301.436 528.376 301.756 528.055 302.284 527.453C302.906 526.743 303.346 526.379 303.733 525.517C304.127 524.638 303.691 523.905 304.216 523.097C304.507 522.65 304.943 522.608 305.182 522.129C305.519 521.453 305.182 520.95 305.182 520.194C305.182 519.249 305.01 518.703 305.182 517.774C305.367 516.773 305.771 516.299 306.148 515.354C306.525 514.409 306.762 513.89 307.114 512.935C307.527 511.813 307.703 511.165 308.08 510.031C308.269 509.464 308.342 509.134 308.563 508.579C308.876 507.795 309.152 507.4 309.529 506.644C309.907 505.888 309.999 505.391 310.495 504.708C310.966 504.059 311.647 504.001 311.944 503.256C312.225 502.554 312.427 501.804 312.427 501.804L313.394 500.353C313.394 500.353 314.283 498.985 314.843 498.901C318.431 498.36 315.605 493.276 316.292 489.706C317.209 484.935 319.19 477.608 319.19 477.608L323.054 467.929L328.367 456.799L333.197 448.572L337.545 441.797L343.824 433.086L350.586 424.375L357.349 414.212L364.111 405.986L372.805 393.887C372.805 393.887 377.792 387.09 381.017 382.757L386.813 375.014C389.051 371.717 392.126 366.303 392.126 366.303C394.29 362.574 397.44 356.624 397.44 356.624C399.534 352.375 400.709 349.253 402.27 345.494C403.831 341.735 404.5 339.542 406.134 335.815C406.134 335.815 411.093 325.306 414.829 318.878L423.523 305.328C427.247 299.625 433.184 290.81 433.184 290.81C435.857 286.207 439.463 278.711 439.463 278.711C439.463 278.711 441.439 274.246 442.844 271.452C445.086 266.993 449.123 260.322 449.123 260.322L452.022 256.934L454.437 254.999C454.437 254.999 456.981 255.881 458.301 256.934C460.102 258.372 461.682 261.774 461.682 261.774L464.097 271.452L466.512 284.035L467.961 293.229L470.86 307.263L473.758 318.878L476.173 329.524L477.622 344.042V355.173L476.173 363.4L473.758 373.078L469.893 385.176L466.512 393.887L462.648 405.986L460.233 414.212L455.886 436.473L450.572 456.799L447.191 474.22L445.742 494.545V517.774L447.191 539.067L450.572 560.844L452.988 575.362L455.886 592.3L458.784 610.689L462.648 632.95L466.029 659.082L467.961 680.859V704.088V718.122L466.029 728.769L464.097 739.415L461.682 751.514L458.784 770.387L457.818 787.809V799.423L458.784 813.941L461.682 827.007L463.614 841.041L466.029 854.107L467.478 869.593L469.41 881.208L470.377 894.274V903.469V908.792L469.41 919.438V926.213L464.58 937.828L469.41 946.539V958.153V972.187L464.58 994.448L458.784 1009.93V1021.55L463.614 1023L467.478 1021.55H494.528L497.426 1018.64L499.841 1016.71L501.29 1013.81L502.739 1010.9V1005.09L501.29 996.868L499.841 989.125V983.318V976.059V967.832C500.324 965.896 501.29 961.831 501.29 961.057C501.29 960.282 502.256 958.798 502.739 958.153V954.282V950.41L501.29 946.539L499.841 942.183L501.29 937.828V935.892L499.841 932.505L498.875 926.213L497.426 920.89V917.503V913.147V908.792V901.533L498.875 889.435V882.659L499.841 872.981V865.238L501.29 856.043L502.739 849.268L504.671 841.041L506.12 833.298L508.052 825.555L509.502 819.264L510.951 811.037L512.4 802.811L513.849 793.132L515.298 787.809V782.485V770.387V758.773V749.094V743.771V732.156L517.713 718.122L521.094 704.088V691.99C521.094 687.151 521.094 677.085 521.094 675.536C521.094 673.988 521.094 669.406 521.094 667.309L523.509 650.856V637.789V626.659C523.509 626.659 523.104 621.032 523.509 617.464C524.016 613.001 525.948 610.802 526.407 606.334C526.716 603.326 526.223 601.609 526.407 598.591C526.782 592.449 528.931 589.247 529.306 583.105C529.49 580.087 528.897 578.358 529.306 575.362C529.758 572.044 531.336 570.462 531.721 567.135C531.981 564.882 531.526 563.588 531.721 561.328C532.02 557.856 533.312 556.085 533.653 552.617C533.93 549.796 533.653 548.193 533.653 545.358C533.653 542.901 533.653 541.524 533.653 539.067C533.653 536.043 533.653 534.348 533.653 531.324C533.653 529.245 533.653 528.08 533.653 526.001C533.653 524.111 532.972 522.924 533.653 521.162C534.281 519.537 534.948 518.45 536.551 517.774" stroke="#5C5D71" stroke-opacity="0.5" stroke-width="2"/>
<path d="M538 14H542.347H545.245L549.11 14.9679L552.974 16.9036L556.355 18.8393L559.736 20.7751L562.151 23.1947L566.015 26.5823L568.914 29.9698L570.846 32.3894L572.295 35.777L573.744 38.1966L575.193 43.036L576.159 45.9396L577.125 51.7468V55.1343V60.9415L576.159 65.2969V70.6201V72.0719C576.159 72.0719 577.5 70.8592 578.574 70.6201C579.311 70.4562 579.782 70.4078 580.506 70.6201C581.411 70.8856 581.809 71.3677 582.438 72.0719C583.872 73.6778 583.636 75.2552 583.887 77.3952C584.086 79.0844 583.887 80.0497 583.887 81.7506C583.887 83.8295 584.244 85.026 583.887 87.0739C583.58 88.84 583.051 89.7446 582.438 91.4293C581.743 93.3418 581.346 94.415 580.506 96.2686C579.809 97.8079 579.359 98.6437 578.574 100.14C577.671 101.862 577.609 103.201 576.159 104.495C575.338 105.229 574.803 105.649 573.744 105.947C572.654 106.254 571.977 105.947 570.846 105.947H568.914C568.914 105.947 569.08 107.729 568.914 108.851C568.676 110.448 568.19 111.28 567.465 112.722C566.97 113.706 566.553 114.18 566.015 115.142C565.192 116.617 565.017 117.606 564.083 119.013C563.415 120.021 562.805 120.415 562.151 121.433C561.467 122.499 561.146 123.149 560.702 124.337C560.028 126.142 559.924 127.258 559.736 129.176C559.552 131.057 559.736 132.125 559.736 134.015C559.736 135.527 559.736 136.375 559.736 137.887C559.736 137.887 559.736 142.016 559.736 144.662C559.736 145.985 559.63 146.731 559.736 148.049C559.89 149.97 560.104 151.057 560.702 152.889C561.149 154.257 561.513 154.987 562.151 156.276C562.827 157.641 563.128 158.478 564.083 159.664C565.176 161.02 566.144 161.433 567.465 162.567C568.785 163.701 569.445 164.438 570.846 165.471C572.618 166.777 573.73 167.347 575.676 168.375C576.422 168.769 576.872 168.929 577.608 169.342C578.794 170.009 579.279 170.69 580.506 171.278C581.582 171.794 582.287 171.827 583.404 172.246C585.539 173.046 586.59 173.848 588.718 174.666C591.113 175.587 592.603 175.677 594.997 176.601C596.73 177.271 597.611 177.866 599.344 178.537C601.013 179.184 601.994 179.422 603.691 179.989C605.955 180.745 607.197 181.257 609.488 181.925C611.728 182.577 613.054 182.689 615.284 183.376C617.394 184.027 618.505 184.605 620.597 185.312C623.028 186.134 624.552 186.16 626.877 187.248C628.254 187.893 628.92 188.459 630.258 189.184C632.113 190.189 633.347 190.411 635.088 191.603C636.304 192.437 636.893 193.034 637.986 194.023C639.372 195.277 640.112 196.025 641.367 197.411C642.991 199.202 643.756 200.334 645.232 202.25C646.384 203.746 647.146 204.509 648.13 206.121C649.009 207.564 649.322 208.474 650.062 209.993C650.062 209.993 652.073 214.441 653.443 217.252C654.183 218.771 654.729 219.562 655.375 221.123C656.427 223.665 656.397 225.302 657.307 227.898C658.538 231.411 659.628 233.223 661.171 236.609C662.468 239.455 663.11 241.093 664.553 243.868C665.449 245.594 666.095 246.485 666.968 248.224C668.258 250.795 668.637 252.397 669.866 254.999C670.587 256.527 671.026 257.367 671.798 258.87C673.072 261.351 673.79 262.743 675.179 265.161C676.616 267.661 677.605 268.953 679.043 271.452C680.224 273.504 680.818 274.692 681.941 276.776C683.466 279.602 684.342 281.176 685.806 284.035C686.768 285.914 687.311 286.967 688.221 288.874C689.204 290.934 689.45 292.247 690.636 294.197C691.755 296.037 692.922 296.698 694.017 298.553C695.839 301.639 695.727 303.881 696.915 307.263C697.648 309.35 697.736 310.675 698.847 312.587C700.124 314.784 701.621 315.431 703.195 317.426C704.622 319.236 705.282 320.357 706.576 322.265C707.34 323.393 707.699 324.073 708.508 325.169C710.175 327.428 711.573 328.309 713.338 330.492C714.953 332.489 715.857 333.627 717.202 335.815C718.751 338.334 719.318 339.918 720.583 342.59C721.56 344.654 721.959 345.882 722.999 347.914C724.194 350.25 725.128 351.414 726.38 353.721C727.789 356.32 728.44 357.85 729.761 360.496C730.893 362.764 731.562 364.018 732.659 366.303C733.83 368.741 734.425 370.137 735.557 372.594C736.689 375.051 737.319 376.431 738.455 378.885C739.769 381.723 740.707 383.228 741.836 386.144C742.98 389.098 743.108 390.934 744.252 393.887C745.381 396.804 746.346 398.296 747.633 401.146C748.991 404.153 749.94 405.769 751.014 408.889C751.969 411.663 752.034 413.36 752.946 416.148C753.765 418.65 754.341 420.014 755.361 422.439C756.574 425.322 757.385 426.881 758.742 429.698C760.209 432.743 761.194 434.371 762.607 437.441C763.809 440.055 764.456 441.536 765.505 444.216C766.528 446.832 766.892 448.377 767.92 450.991C769.282 454.455 770.323 456.279 771.784 459.702C772.748 461.961 773.137 463.295 774.199 465.509C775.223 467.644 776.001 468.735 777.097 470.833C778.271 473.079 779.011 474.304 779.995 476.64C780.622 478.127 780.686 479.086 781.445 480.511C782.332 482.179 783.565 482.661 784.343 484.383C784.984 485.803 784.713 486.815 785.309 488.254C786.09 490.142 787.244 490.807 788.207 492.61C789.447 494.93 789.186 496.696 790.622 498.901C791.282 499.914 791.922 500.289 792.554 501.32C792.995 502.041 793.239 502.459 793.52 503.256C793.964 504.516 793.815 505.321 794.003 506.644C794.192 507.967 794.386 508.699 794.486 510.031C794.6 511.539 794.021 512.464 794.486 513.903C794.826 514.951 795.551 515.29 795.935 516.322C796.336 517.399 796.143 518.11 796.418 519.226C796.704 520.386 797.007 520.996 797.384 522.129C797.95 523.83 798.07 524.863 798.833 526.485C799.592 528.098 800.405 528.787 801.249 530.356L802.215 532.292C802.215 532.292 802.39 534.964 802.698 536.647C802.978 538.18 803.162 539.044 803.664 540.519C804.127 541.881 804.566 542.576 805.113 543.906C805.5 544.848 805.702 545.381 806.079 546.326C806.456 547.271 806.709 547.785 807.045 548.746C807.499 550.044 807.634 550.81 808.011 552.133C808.388 553.456 808.324 554.31 808.977 555.521C809.425 556.352 810.037 556.596 810.426 557.457C810.747 558.167 811.194 558.667 810.909 559.392C810.713 559.89 810.439 560.164 809.943 560.36C809.219 560.646 808.769 560.049 808.011 559.876C807.073 559.662 806.451 559.834 805.596 559.392C804.647 558.903 804.322 558.298 803.664 557.457C802.985 556.589 802.893 555.904 802.215 555.037C801.556 554.196 800.941 553.943 800.283 553.101C799.863 552.565 799.599 552.269 799.316 551.649C798.994 550.94 798.895 550.49 798.833 549.714C798.803 549.337 799.1 549.013 798.833 548.746C798.567 548.479 798.245 548.746 797.867 548.746H796.901C796.901 548.746 796.282 548.502 795.935 548.262C795.16 547.724 795.101 547.043 794.486 546.326C793.791 545.515 793.161 545.269 792.554 544.39C792.074 543.696 791.867 543.252 791.588 542.455C791.208 541.37 791.18 540.698 791.105 539.551C791.056 538.797 791.199 538.365 791.105 537.615C790.957 536.429 790.437 535.869 790.139 534.712C789.898 533.779 789.709 533.254 789.656 532.292C789.635 531.915 789.709 531.698 789.656 531.324C789.537 530.488 789.092 530.131 788.69 529.388C788.166 528.42 787.834 527.897 787.241 526.969C786.874 526.395 786.62 526.104 786.275 525.517C785.846 524.789 785.737 524.309 785.309 523.581C784.963 522.994 784.733 522.688 784.343 522.129C783.801 521.356 783.46 520.95 782.894 520.194C782.328 519.438 781.951 519.055 781.445 518.258C780.765 517.188 780.801 516.332 779.995 515.354C779.656 514.942 779.407 514.009 779.029 514.387C778.763 514.654 779.029 514.976 779.029 515.354C779.029 516.299 779.029 516.829 779.029 517.774C779.029 518.341 778.925 518.669 779.029 519.226C779.185 520.057 779.593 520.419 779.995 521.162C780.52 522.13 781.147 522.52 781.445 523.581C781.751 524.673 781.445 525.351 781.445 526.485C781.445 527.052 781.445 527.937 781.445 527.937C781.445 527.937 781.511 529.321 780.962 529.872C780.412 530.423 779.802 530.263 779.029 530.356C778.28 530.447 777.821 530.569 777.097 530.356C776.192 530.091 775.874 529.528 775.165 528.905C774.564 528.376 774.244 528.055 773.716 527.453C773.094 526.743 772.654 526.379 772.267 525.517C771.873 524.638 772.309 523.905 771.784 523.097C771.493 522.65 771.057 522.608 770.818 522.129C770.481 521.453 770.818 520.95 770.818 520.194C770.818 519.249 770.99 518.703 770.818 517.774C770.633 516.773 770.229 516.299 769.852 515.354C769.475 514.409 769.238 513.89 768.886 512.935C768.473 511.813 768.297 511.165 767.92 510.031C767.731 509.464 767.658 509.134 767.437 508.579C767.124 507.795 766.848 507.4 766.471 506.644C766.093 505.888 766.001 505.391 765.505 504.708C765.034 504.059 764.353 504.001 764.056 503.256C763.775 502.554 763.573 501.804 763.573 501.804L762.606 500.353C762.606 500.353 761.717 498.985 761.157 498.901C757.569 498.36 760.395 493.276 759.708 489.706C758.791 484.935 756.81 477.608 756.81 477.608L752.946 467.929L747.633 456.799L742.803 448.572L738.455 441.797L732.176 433.086L725.414 424.375L718.651 414.212L711.889 405.986L703.195 393.887C703.195 393.887 698.208 387.09 694.983 382.757L689.187 375.014C686.949 371.717 683.874 366.303 683.874 366.303C681.71 362.574 678.56 356.624 678.56 356.624C676.466 352.375 675.291 349.253 673.73 345.494C672.169 341.735 671.5 339.542 669.866 335.815C669.866 335.815 664.907 325.306 661.171 318.878L652.477 305.328C648.753 299.625 642.816 290.81 642.816 290.81C640.143 286.207 636.537 278.711 636.537 278.711C636.537 278.711 634.561 274.246 633.156 271.452C630.914 266.993 626.877 260.322 626.877 260.322L623.978 256.934L621.563 254.999C621.563 254.999 619.019 255.881 617.699 256.934C615.898 258.372 614.318 261.774 614.318 261.774L611.903 271.452L609.488 284.035L608.039 293.229L605.14 307.263L602.242 318.878L599.827 329.524L598.378 344.042V355.173L599.827 363.4L602.242 373.078L606.107 385.176L609.488 393.887L613.352 405.986L615.767 414.212L620.114 436.473L625.428 456.799L628.809 474.22L630.258 494.545V517.774L628.809 539.067L625.428 560.844L623.012 575.362L620.114 592.3L617.216 610.689L613.352 632.95L609.971 659.082L608.039 680.859V704.088V718.122L609.971 728.769L611.903 739.415L614.318 751.514L617.216 770.387L618.182 787.809V799.423L617.216 813.941L614.318 827.007L612.386 841.041L609.971 854.107L608.522 869.593L606.59 881.208L605.623 894.274V903.469V908.792L606.59 919.438V926.213L611.42 937.828L606.59 946.539V958.153V972.187L611.42 994.448L617.216 1009.93V1021.55L612.386 1023L608.522 1021.55H581.472L578.574 1018.64L576.159 1016.71L574.71 1013.81L573.261 1010.9V1005.09L574.71 996.868L576.159 989.125V983.318V976.059V967.832C575.676 965.896 574.71 961.831 574.71 961.057C574.71 960.282 573.744 958.798 573.261 958.153V954.282V950.41L574.71 946.539L576.159 942.183L574.71 937.828V935.892L576.159 932.505L577.125 926.213L578.574 920.89V917.503V913.147V908.792V901.533L577.125 889.435V882.659L576.159 872.981V865.238L574.71 856.043L573.261 849.268L571.329 841.041L569.88 833.298L567.948 825.555L566.498 819.264L565.049 811.037L563.6 802.811L562.151 793.132L560.702 787.809V782.485V770.387V758.773V749.094V743.771V732.156L558.287 718.122L554.906 704.088V691.99C554.906 687.151 554.906 677.085 554.906 675.536C554.906 673.988 554.906 669.406 554.906 667.309L552.491 650.856V637.789V626.659C552.491 626.659 552.896 621.032 552.491 617.464C551.984 613.001 550.052 610.802 549.593 606.334C549.284 603.326 549.777 601.609 549.593 598.591C549.218 592.449 547.069 589.247 546.694 583.105C546.51 580.087 547.103 578.358 546.694 575.362C546.242 572.044 544.664 570.462 544.279 567.135C544.019 564.882 544.474 563.588 544.279 561.328C543.98 557.856 542.688 556.085 542.347 552.617C542.07 549.796 542.347 548.193 542.347 545.358C542.347 542.901 542.347 541.524 542.347 539.067C542.347 536.043 542.347 534.348 542.347 531.324C542.347 529.245 542.347 528.08 542.347 526.001C542.347 524.111 543.028 522.924 542.347 521.162C541.719 519.537 541.052 518.45 539.449 517.774" stroke="#5C5D71" stroke-opacity="0.5" stroke-width="2"/>
</svg>
